<?xml version="1.0" encoding="UTF-8" standalone="yes"?>
<!-- Created with sK1/UniConvertor (http://sk1project.org/) -->
<svg xmlns="http://www.w3.org/2000/svg" xmlns:xlink="http://www.w3.org/1999/xlink"
  width="595.276pt" height="841.89pt" viewBox="0 0 595.276 841.89"
  fill-rule="evenodd">
<g>
<path style="stroke:none; fill:#999999" d="M 324.403 170.777C 364.399 118.062 420.004 117.805 420.004 117.805C 420.004 117.805 428.273 167.366 388.541 215.11C 346.115 266.091 297.892 257.748 297.892 257.748C 297.892 257.748 288.837 217.654 324.403 170.777z"/>
<path style="stroke:none; fill:#999999" d="M 302.978 292.467C 323.556 292.467 361.742 264.183 411.449 264.183C 497.012 264.183 530.671 325.066 530.671 325.066C 530.671 325.066 464.838 358.724 464.838 440.396C 464.838 532.529 546.847 564.28 546.847 564.28C 546.847 564.28 489.519 725.639 412.086 725.639C 376.52 725.639 348.871 701.671 311.397 701.671C 273.211 701.671 235.314 726.533 210.633 726.533C 139.924 726.533 50.5938 573.47 50.5938 450.434C 50.5938 329.381 126.206 265.879 197.127 265.879C 243.231 265.879 279.01 292.467 302.978 292.467z"/>
</g>
</svg>